<svg width="32" height="32" viewBox="0 0 32 32" fill="none" xmlns="http://www.w3.org/2000/svg">
<g id="LinkedIn">
<path id="Vector" fill-rule="evenodd" clip-rule="evenodd" d="M6.27551 4.6665C5.38695 4.6665 4.66663 5.38683 4.66663 6.27539V25.7242C4.66663 26.6128 5.38695 27.3331 6.27551 27.3331H25.7244C26.613 27.3331 27.3333 26.6128 27.3333 25.7242V6.27539C27.3333 5.38683 26.613 4.6665 25.7244 4.6665H6.27551ZM9.75425 11.7056C10.8402 11.7056 11.7206 10.8253 11.7206 9.73932C11.7206 8.65335 10.8402 7.77299 9.75425 7.77299C8.66828 7.77299 7.78792 8.65335 7.78792 9.73932C7.78792 10.8253 8.66828 11.7056 9.75425 11.7056ZM13.5214 13.1588H16.7802V14.6517C16.7802 14.6517 17.6646 12.883 20.0707 12.883C22.2171 12.883 23.9951 13.9404 23.9951 17.1633V23.9595H20.618V17.9868C20.618 16.0856 19.603 15.8765 18.8296 15.8765C17.2244 15.8765 16.9496 17.2611 16.9496 18.2348V23.9595H13.5214V13.1588ZM11.4684 13.1588H8.04015V23.9595H11.4684V13.1588Z" fill="white"/>
</g>
</svg>
